<?xml version="1.0" encoding="utf-8"?>
<!-- Generator: Adobe Illustrator 24.1.2, SVG Export Plug-In . SVG Version: 6.00 Build 0)  -->
<svg version="1.1" id="Layer_1" xmlns="http://www.w3.org/2000/svg" xmlns:xlink="http://www.w3.org/1999/xlink" x="0px" y="0px"
	 width="501.2px" height="160px" viewBox="0 0 501.2 160" style="enable-background:new 0 0 501.2 160;" xml:space="preserve">
<g>
	<polygon points="74,15 54,15 19,145 39,145 53.1,92.8 79.7,77.4 61.5,145 81.5,145 116.5,15 96.5,15 87.1,50.1 60.4,65.5 	"/>
	<path d="M131.5,15l-35,130h20l14-52.2l50.3-29.1l6.3-23.6c3.4-12.7-6.2-25.2-19.3-25.2H131.5z M164.6,50.1l-26.6,15.4l8.2-30.5
		h22.5L164.6,50.1z"/>
	<path d="M174,145l35-130h36.4c13.2,0,22.7,12.5,19.3,25.2L236.5,145h-20l29.6-110h-22.5L194,145H174z"/>
	<path d="M342.2,21l1.6-6H325l-8.5,31.7c-1,3.8,1.9,7.6,5.8,7.6h11l1.6-6L322,48.4l3.9-14.5h6l1.6-6h-6l1.8-6.8H342.2z"/>
	<path d="M414.2,15h-6l-2.9,10.6l-4.6,2.6l-2.3-2.3l2.9-10.9h-6l-2.6,9.5c-0.6,2.1,0,4.3,1.6,5.8l2.3,2.3l-5.8,21.6h6.8l5.5-20.4
		l5-2.9c1.4-0.8,2.4-2.1,2.8-3.7L414.2,15z"/>
	<path d="M361.9,60.3l-9,33.3h-6.8l9-33.3h-6l-9,33.3h-6.8l9-33.3h-6L327.7,92c-1,3.8,1.9,7.6,5.8,7.6h0.7c2.7,0,5.4-1.1,7.3-3l0,0
		l0,0c1.9,1.9,4.6,3,7.3,3h8.6l10.6-39.3H361.9z"/>
	<path d="M389.7,66.4l1.6-6h-18.9L363.9,92c-1,3.8,1.9,7.6,5.8,7.6h11l1.6-6l-12.9,0.1l3.9-14.5h6l1.6-6h-6l1.8-6.8H389.7z"/>
	<path d="M406.9,60.3h-11l-10.6,39.3h6l4.2-15.8l4.7-2.7l2.2,2.2l-4.4,16.3h6l4.9-18.2l-3.4-3.4l5.1-2.9l1.9-7.1
		C413.8,64.1,410.9,60.3,406.9,60.3z M405.9,71l-8.1,4.7l2.5-9.2h6.8L405.9,71z"/>
	<path d="M297.9,145h6.4c2.7,0,5.1-1.8,5.8-4.5l9.4-34.8h-6l-9,33.3h-6.8l9-33.3h-6l-8.5,31.7C291,141.2,293.9,145,297.9,145z"/>
	<polygon points="319.4,145 326.2,145 335.2,111.7 341.2,111.7 342.9,105.7 324,105.7 322.2,111.7 328.4,111.7 	"/>
	<path d="M358.4,105.7h-11L336.8,145h6l4.2-15.8l4.7-2.7l2.2,2.2l-4.4,16.3h6l4.9-18.2l-3.4-3.4l5.1-2.9l1.9-7.1
		C365.3,109.5,362.4,105.7,358.4,105.7z M357.4,116.3l-8.1,4.7l2.5-9.2h6.8L357.4,116.3z"/>
	<polygon points="360.3,145 366.3,145 376.9,105.7 370.8,105.7 	"/>
	<polygon points="376.9,145 383.7,145 392.6,111.7 398.7,111.7 400.3,105.7 381.4,105.7 379.6,111.7 385.8,111.7 	"/>
	<polygon points="394.3,145 400.3,145 410.9,105.7 404.9,105.7 	"/>
	<polygon points="371.8,15 377.9,15 369.8,44.9 371.7,46.7 376.9,43.7 384.7,15 390.7,15 381.9,47.8 370.7,54.3 363.3,46.9 	"/>
	<path d="M359.4,15H353c-2.7,0-5.1,1.8-5.8,4.5l-9.4,34.8h6l4.2-15.8l8.1-4.7l-5.5,20.4h6l8.5-31.7C366.3,18.8,363.4,15,359.4,15z
		 M358.4,25.6l-8.1,4.7l2.5-9.2h6.8L358.4,25.6z"/>
	<polygon points="307.6,15 301.5,15 291,54.3 297,54.3 301.3,38.5 309.3,33.9 303.8,54.3 309.9,54.3 320.4,15 314.4,15 311.5,25.6 
		303.5,30.3 	"/>
	<path d="M289.3,60.3l-10.6,39.3h6l4.2-15.8l15.2-8.8l1.9-7.1c1-3.8-1.9-7.6-5.8-7.6H289.3z M299.3,71l-8.1,4.7l2.5-9.2h6.8
		L299.3,71z"/>
	<path d="M311.6,64.8L304.2,92c-1,3.8,1.9,7.6,5.8,7.6h6.4c2.7,0,5.1-1.8,5.8-4.5l7.3-27.2c1-3.8-1.9-7.6-5.8-7.6h-6.4
		C314.7,60.3,312.3,62.2,311.6,64.8z M316.7,93.6h-6.8l7.3-27.2h6.8L316.7,93.6z"/>
	<path d="M266.5,145l10.6-39.3h11c4,0,6.9,3.8,5.8,7.6l-8.5,31.7h-6l9-33.3h-6.8l-9,33.3H266.5z"/>
	<path d="M414.2,110.2l-7.3,27.2c-1,3.8,1.9,7.6,5.8,7.6h6.4c2.7,0,5.1-1.8,5.8-4.5l7.3-27.2c1-3.8-1.9-7.6-5.8-7.6h-6.4
		C417.3,105.7,414.9,107.5,414.2,110.2z M419.3,139h-6.8l7.3-27.2h6.8L419.3,139z"/>
	<path d="M428.3,145l10.6-39.3h11c4,0,6.9,3.8,5.8,7.6l-8.5,31.7h-6l9-33.3h-6.8l-9,33.3H428.3z"/>
	<rect x="201.7" y="78.5" transform="matrix(0.2598 -0.9657 0.9657 0.2598 121.887 319.0153)" width="134.6" height="3"/>
</g>
</svg>
